<mxfile host="app.diagrams.net" agent="Mozilla/5.0 (Windows NT 10.0; Win64; x64) AppleWebKit/537.36 (KHTML, like Gecko) Chrome/133.0.0.0 Safari/537.36" version="26.0.10">
  <diagram name="Page-1" id="LPzst_-0_y2L3GmmsK-Y">
    <mxGraphModel dx="1050" dy="530" grid="1" gridSize="10" guides="1" tooltips="1" connect="1" arrows="1" fold="1" page="1" pageScale="1" pageWidth="827" pageHeight="1169" math="0" shadow="0">
      <root>
        <mxCell id="0" />
        <mxCell id="1" parent="0" />
        <mxCell id="z-U7OeFBTZnrWqEBeKeV-1" value="Utilisateur AuthentifiÃ©" style="shape=umlActor;verticalLabelPosition=bottom;verticalAlign=top;html=1;outlineConnect=0;" vertex="1" parent="1">
          <mxGeometry x="130" y="140" width="30" height="60" as="geometry" />
        </mxCell>
        <mxCell id="z-U7OeFBTZnrWqEBeKeV-3" value="" style="line;strokeWidth=1;fillColor=none;align=left;verticalAlign=middle;spacingTop=-1;spacingLeft=3;spacingRight=3;rotatable=0;labelPosition=right;points=[];portConstraint=eastwest;strokeColor=inherit;" vertex="1" parent="1">
          <mxGeometry x="170" y="172" width="140" height="8" as="geometry" />
        </mxCell>
        <mxCell id="z-U7OeFBTZnrWqEBeKeV-4" value="&lt;span style=&quot;text-wrap-mode: nowrap;&quot;&gt;Consulter la liste&lt;/span&gt;&lt;div&gt;&lt;span style=&quot;text-wrap-mode: nowrap;&quot;&gt;des contacts&lt;/span&gt;&lt;/div&gt;" style="ellipse;whiteSpace=wrap;html=1;" vertex="1" parent="1">
          <mxGeometry x="310" y="141" width="140" height="70" as="geometry" />
        </mxCell>
      </root>
    </mxGraphModel>
  </diagram>
</mxfile>
